<mxfile host="Electron" agent="Mozilla/5.0 (Windows NT 10.0; Win64; x64) AppleWebKit/537.36 (KHTML, like Gecko) draw.io/24.7.8 Chrome/128.0.6613.36 Electron/32.0.1 Safari/537.36" version="24.7.8">
  <diagram name="第 1 页" id="mCWtkM7oL5q_eiXXiXyN">
    <mxGraphModel dx="1576" dy="911" grid="1" gridSize="10" guides="1" tooltips="1" connect="1" arrows="1" fold="1" page="1" pageScale="1" pageWidth="2336" pageHeight="1654" math="0" shadow="0">
      <root>
        <mxCell id="0" />
        <mxCell id="1" parent="0" />
        <mxCell id="q0aw69j3LzKCfFc9bhw0-42" style="edgeStyle=orthogonalEdgeStyle;rounded=0;orthogonalLoop=1;jettySize=auto;html=1;exitX=1;exitY=0.5;exitDx=0;exitDy=0;" edge="1" parent="1" source="q0aw69j3LzKCfFc9bhw0-17" target="q0aw69j3LzKCfFc9bhw0-43">
          <mxGeometry relative="1" as="geometry">
            <mxPoint x="1360" y="360.1111111111111" as="targetPoint" />
          </mxGeometry>
        </mxCell>
        <mxCell id="q0aw69j3LzKCfFc9bhw0-17" value="" style="rounded=0;whiteSpace=wrap;html=1;fontFamily=Times New Roman;" vertex="1" parent="1">
          <mxGeometry x="500" y="240" width="740" height="240" as="geometry" />
        </mxCell>
        <mxCell id="q0aw69j3LzKCfFc9bhw0-34" style="edgeStyle=orthogonalEdgeStyle;rounded=0;orthogonalLoop=1;jettySize=auto;html=1;exitX=1;exitY=0.75;exitDx=0;exitDy=0;entryX=0;entryY=0.5;entryDx=0;entryDy=0;" edge="1" parent="1" source="q0aw69j3LzKCfFc9bhw0-1" target="q0aw69j3LzKCfFc9bhw0-33">
          <mxGeometry relative="1" as="geometry" />
        </mxCell>
        <mxCell id="q0aw69j3LzKCfFc9bhw0-35" style="edgeStyle=orthogonalEdgeStyle;rounded=0;orthogonalLoop=1;jettySize=auto;html=1;exitX=1;exitY=0.25;exitDx=0;exitDy=0;entryX=0;entryY=0.5;entryDx=0;entryDy=0;" edge="1" parent="1" source="q0aw69j3LzKCfFc9bhw0-1" target="q0aw69j3LzKCfFc9bhw0-25">
          <mxGeometry relative="1" as="geometry" />
        </mxCell>
        <mxCell id="q0aw69j3LzKCfFc9bhw0-1" value="&lt;font style=&quot;font-size: 19px;&quot;&gt;GCN&lt;/font&gt;" style="rounded=0;whiteSpace=wrap;html=1;fontFamily=Times New Roman;" vertex="1" parent="1">
          <mxGeometry x="540" y="330" width="120" height="60" as="geometry" />
        </mxCell>
        <mxCell id="q0aw69j3LzKCfFc9bhw0-30" value="" style="edgeStyle=orthogonalEdgeStyle;rounded=0;orthogonalLoop=1;jettySize=auto;html=1;exitX=1;exitY=0.25;exitDx=0;exitDy=0;" edge="1" parent="1" source="q0aw69j3LzKCfFc9bhw0-3" target="q0aw69j3LzKCfFc9bhw0-29">
          <mxGeometry relative="1" as="geometry" />
        </mxCell>
        <mxCell id="q0aw69j3LzKCfFc9bhw0-39" value="" style="edgeStyle=orthogonalEdgeStyle;rounded=0;orthogonalLoop=1;jettySize=auto;html=1;exitX=1;exitY=0.75;exitDx=0;exitDy=0;" edge="1" parent="1" source="q0aw69j3LzKCfFc9bhw0-3" target="q0aw69j3LzKCfFc9bhw0-37">
          <mxGeometry relative="1" as="geometry" />
        </mxCell>
        <mxCell id="q0aw69j3LzKCfFc9bhw0-3" value="&lt;font style=&quot;font-size: 19px;&quot;&gt;Fussy&lt;/font&gt;" style="rounded=0;whiteSpace=wrap;html=1;fontFamily=Times New Roman;" vertex="1" parent="1">
          <mxGeometry x="820" y="330" width="120" height="60" as="geometry" />
        </mxCell>
        <mxCell id="q0aw69j3LzKCfFc9bhw0-6" value="&lt;font style=&quot;font-size: 19px;&quot;&gt;Augment&lt;/font&gt;" style="rounded=0;whiteSpace=wrap;html=1;fontFamily=Times New Roman;" vertex="1" parent="1">
          <mxGeometry x="250" y="340" width="120" height="60" as="geometry" />
        </mxCell>
        <mxCell id="q0aw69j3LzKCfFc9bhw0-8" style="edgeStyle=orthogonalEdgeStyle;rounded=0;orthogonalLoop=1;jettySize=auto;html=1;exitX=1;exitY=0.5;exitDx=0;exitDy=0;" edge="1" parent="1" source="q0aw69j3LzKCfFc9bhw0-7" target="q0aw69j3LzKCfFc9bhw0-6">
          <mxGeometry relative="1" as="geometry" />
        </mxCell>
        <mxCell id="q0aw69j3LzKCfFc9bhw0-7" value="&lt;font style=&quot;font-size: 19px;&quot;&gt;G&lt;/font&gt;" style="ellipse;whiteSpace=wrap;html=1;aspect=fixed;fontFamily=Times New Roman;" vertex="1" parent="1">
          <mxGeometry x="170" y="350" width="40" height="40" as="geometry" />
        </mxCell>
        <mxCell id="q0aw69j3LzKCfFc9bhw0-14" value="G_ER1" style="ellipse;whiteSpace=wrap;html=1;aspect=fixed;fontFamily=Times New Roman;" vertex="1" parent="1">
          <mxGeometry x="420" y="300" width="40" height="40" as="geometry" />
        </mxCell>
        <mxCell id="q0aw69j3LzKCfFc9bhw0-20" value="" style="edgeStyle=orthogonalEdgeStyle;rounded=0;orthogonalLoop=1;jettySize=auto;html=1;entryX=0;entryY=0.75;entryDx=0;entryDy=0;" edge="1" parent="1" source="q0aw69j3LzKCfFc9bhw0-15" target="q0aw69j3LzKCfFc9bhw0-17">
          <mxGeometry relative="1" as="geometry" />
        </mxCell>
        <mxCell id="q0aw69j3LzKCfFc9bhw0-15" value="G_FM1" style="ellipse;whiteSpace=wrap;html=1;aspect=fixed;fontFamily=Times New Roman;" vertex="1" parent="1">
          <mxGeometry x="420" y="400" width="40" height="40" as="geometry" />
        </mxCell>
        <mxCell id="q0aw69j3LzKCfFc9bhw0-18" value="" style="strokeWidth=2;html=1;shape=mxgraph.flowchart.annotation_2;align=left;labelPosition=right;pointerEvents=1;fontFamily=Times New Roman;" vertex="1" parent="1">
          <mxGeometry x="370" y="320" width="50" height="100" as="geometry" />
        </mxCell>
        <mxCell id="q0aw69j3LzKCfFc9bhw0-19" style="edgeStyle=orthogonalEdgeStyle;rounded=0;orthogonalLoop=1;jettySize=auto;html=1;exitX=1;exitY=0.5;exitDx=0;exitDy=0;entryX=0;entryY=0.335;entryDx=0;entryDy=0;entryPerimeter=0;" edge="1" parent="1" source="q0aw69j3LzKCfFc9bhw0-14" target="q0aw69j3LzKCfFc9bhw0-17">
          <mxGeometry relative="1" as="geometry" />
        </mxCell>
        <mxCell id="q0aw69j3LzKCfFc9bhw0-21" value="&lt;font style=&quot;font-size: 22px;&quot;&gt;FGCNN&lt;/font&gt;" style="text;html=1;align=center;verticalAlign=middle;resizable=0;points=[];autosize=1;strokeColor=none;fillColor=none;fontFamily=Times New Roman;" vertex="1" parent="1">
          <mxGeometry x="820" y="250" width="100" height="40" as="geometry" />
        </mxCell>
        <mxCell id="q0aw69j3LzKCfFc9bhw0-26" value="" style="edgeStyle=orthogonalEdgeStyle;rounded=0;orthogonalLoop=1;jettySize=auto;html=1;entryX=0;entryY=0.25;entryDx=0;entryDy=0;" edge="1" parent="1" source="q0aw69j3LzKCfFc9bhw0-25" target="q0aw69j3LzKCfFc9bhw0-3">
          <mxGeometry relative="1" as="geometry" />
        </mxCell>
        <mxCell id="q0aw69j3LzKCfFc9bhw0-25" value="x_er" style="ellipse;whiteSpace=wrap;html=1;aspect=fixed;fontFamily=Times New Roman;" vertex="1" parent="1">
          <mxGeometry x="730" y="310" width="40" height="40" as="geometry" />
        </mxCell>
        <mxCell id="q0aw69j3LzKCfFc9bhw0-40" value="" style="edgeStyle=orthogonalEdgeStyle;rounded=0;orthogonalLoop=1;jettySize=auto;html=1;entryX=0;entryY=0.25;entryDx=0;entryDy=0;" edge="1" parent="1" source="q0aw69j3LzKCfFc9bhw0-29" target="q0aw69j3LzKCfFc9bhw0-31">
          <mxGeometry relative="1" as="geometry" />
        </mxCell>
        <mxCell id="q0aw69j3LzKCfFc9bhw0-29" value="x_er" style="ellipse;whiteSpace=wrap;html=1;aspect=fixed;fontFamily=Times New Roman;" vertex="1" parent="1">
          <mxGeometry x="1000" y="310" width="40" height="40" as="geometry" />
        </mxCell>
        <mxCell id="q0aw69j3LzKCfFc9bhw0-31" value="&lt;font style=&quot;font-size: 16px;&quot;&gt;CL&lt;/font&gt;" style="rounded=0;whiteSpace=wrap;html=1;fontFamily=Times New Roman;" vertex="1" parent="1">
          <mxGeometry x="1080" y="330" width="120" height="60" as="geometry" />
        </mxCell>
        <mxCell id="q0aw69j3LzKCfFc9bhw0-36" value="" style="edgeStyle=orthogonalEdgeStyle;rounded=0;orthogonalLoop=1;jettySize=auto;html=1;entryX=0;entryY=0.75;entryDx=0;entryDy=0;" edge="1" parent="1" source="q0aw69j3LzKCfFc9bhw0-33" target="q0aw69j3LzKCfFc9bhw0-3">
          <mxGeometry relative="1" as="geometry" />
        </mxCell>
        <mxCell id="q0aw69j3LzKCfFc9bhw0-33" value="x_fm" style="ellipse;whiteSpace=wrap;html=1;aspect=fixed;fontFamily=Times New Roman;" vertex="1" parent="1">
          <mxGeometry x="730" y="370" width="40" height="40" as="geometry" />
        </mxCell>
        <mxCell id="q0aw69j3LzKCfFc9bhw0-41" value="" style="edgeStyle=orthogonalEdgeStyle;rounded=0;orthogonalLoop=1;jettySize=auto;html=1;entryX=0;entryY=0.75;entryDx=0;entryDy=0;" edge="1" parent="1" source="q0aw69j3LzKCfFc9bhw0-37" target="q0aw69j3LzKCfFc9bhw0-31">
          <mxGeometry relative="1" as="geometry" />
        </mxCell>
        <mxCell id="q0aw69j3LzKCfFc9bhw0-37" value="x_fm" style="ellipse;whiteSpace=wrap;html=1;aspect=fixed;fontFamily=Times New Roman;" vertex="1" parent="1">
          <mxGeometry x="1000" y="370" width="40" height="40" as="geometry" />
        </mxCell>
        <mxCell id="q0aw69j3LzKCfFc9bhw0-43" value="feature" style="ellipse;whiteSpace=wrap;html=1;aspect=fixed;fontFamily=Times New Roman;" vertex="1" parent="1">
          <mxGeometry x="1280" y="330" width="60" height="60" as="geometry" />
        </mxCell>
      </root>
    </mxGraphModel>
  </diagram>
</mxfile>
